<svg width="60" height="60" viewBox="0 0 60 60" fill="#fff" xmlns="http://www.w3.org/2000/svg">
<path d="M11.345 50.3848C10.6117 50.3848 9.99583 50.1348 9.4975 49.6348C8.99917 49.1381 8.75 48.5223 8.75 47.7873V20.4798C8.75 19.7464 8.99917 19.1298 9.4975 18.6298C9.9975 18.1331 10.6142 17.8848 11.3475 17.8848H18.75V10.4798C18.75 9.74643 18.9992 9.12977 19.4975 8.62977C19.9975 8.1331 20.6142 7.88477 21.3475 7.88477H38.655C39.3883 7.88477 40.0042 8.13393 40.5025 8.63227C41.0008 9.1306 41.25 9.74727 41.25 10.4823V27.8823H48.655C49.3883 27.8823 50.0042 28.1323 50.5025 28.6323C51.0008 29.1306 51.25 29.7473 51.25 30.4823V47.7873C51.25 48.5206 51.0008 49.1373 50.5025 49.6373C50.0025 50.1356 49.3858 50.3848 48.6525 50.3848H33.75V40.3848H26.25V50.3848H11.345ZM11.25 47.8848H18.75V40.3848H11.25V47.8848ZM11.25 37.8848H18.75V30.3848H11.25V37.8848ZM11.25 27.8848H18.75V20.3848H11.25V27.8848ZM21.25 37.8848H28.75V30.3848H21.25V37.8848ZM21.25 27.8848H28.75V20.3848H21.25V27.8848ZM21.25 17.8848H28.75V10.3848H21.25V17.8848ZM31.25 37.8848H38.75V30.3848H31.25V37.8848ZM31.25 27.8848H38.75V20.3848H31.25V27.8848ZM31.25 17.8848H38.75V10.3848H31.25V17.8848ZM41.25 47.8848H48.75V40.3848H41.25V47.8848ZM41.25 37.8848H48.75V30.3848H41.25V37.8848Z" fill="#0F1412"/>
</svg>
