<svg width="60" height="60" viewBox="0 0 60 60" fill="none" xmlns="http://www.w3.org/2000/svg">
<path d="M20.25 19.5C20.8467 19.5 21.419 19.2629 21.841 18.841C22.2629 18.419 22.5 17.8467 22.5 17.25C22.5 16.6533 22.2629 16.081 21.841 15.659C21.419 15.2371 20.8467 15 20.25 15C19.6533 15 19.081 15.2371 18.659 15.659C18.2371 16.081 18 16.6533 18 17.25C18 17.8467 18.2371 18.419 18.659 18.841C19.081 19.2629 19.6533 19.5 20.25 19.5ZM22.5 26.25C22.5 26.8467 22.2629 27.419 21.841 27.841C21.419 28.2629 20.8467 28.5 20.25 28.5C19.6533 28.5 19.081 28.2629 18.659 27.841C18.2371 27.419 18 26.8467 18 26.25C18 25.6533 18.2371 25.081 18.659 24.659C19.081 24.2371 19.6533 24 20.25 24C20.8467 24 21.419 24.2371 21.841 24.659C22.2629 25.081 22.5 25.6533 22.5 26.25ZM20.25 37.5C20.5455 37.5 20.8381 37.4418 21.111 37.3287C21.384 37.2157 21.6321 37.0499 21.841 36.841C22.0499 36.6321 22.2157 36.384 22.3287 36.111C22.4418 35.8381 22.5 35.5455 22.5 35.25C22.5 34.9545 22.4418 34.6619 22.3287 34.389C22.2157 34.116 22.0499 33.8679 21.841 33.659C21.6321 33.4501 21.384 33.2843 21.111 33.1713C20.8381 33.0582 20.5455 33 20.25 33C19.6533 33 19.081 33.2371 18.659 33.659C18.2371 34.081 18 34.6533 18 35.25C18 35.8467 18.2371 36.419 18.659 36.841C19.081 37.2629 19.6533 37.5 20.25 37.5ZM31.5 17.25C31.5 17.8467 31.2629 18.419 30.841 18.841C30.419 19.2629 29.8467 19.5 29.25 19.5C28.6533 19.5 28.081 19.2629 27.659 18.841C27.2371 18.419 27 17.8467 27 17.25C27 16.6533 27.2371 16.081 27.659 15.659C28.081 15.2371 28.6533 15 29.25 15C29.8467 15 30.419 15.2371 30.841 15.659C31.2629 16.081 31.5 16.6533 31.5 17.25ZM29.25 28.5C29.8467 28.5 30.419 28.2629 30.841 27.841C31.2629 27.419 31.5 26.8467 31.5 26.25C31.5 25.6533 31.2629 25.081 30.841 24.659C30.419 24.2371 29.8467 24 29.25 24C28.6533 24 28.081 24.2371 27.659 24.659C27.2371 25.081 27 25.6533 27 26.25C27 26.8467 27.2371 27.419 27.659 27.841C28.081 28.2629 28.6533 28.5 29.25 28.5ZM31.5 35.25C31.5 35.8467 31.2629 36.419 30.841 36.841C30.419 37.2629 29.8467 37.5 29.25 37.5C28.6533 37.5 28.081 37.2629 27.659 36.841C27.2371 36.419 27 35.8467 27 35.25C27 34.6533 27.2371 34.081 27.659 33.659C28.081 33.2371 28.6533 33 29.25 33C29.8467 33 30.419 33.2371 30.841 33.659C31.2629 34.081 31.5 34.6533 31.5 35.25ZM38.25 37.5C38.5455 37.5 38.8381 37.4418 39.111 37.3287C39.384 37.2157 39.6321 37.0499 39.841 36.841C40.0499 36.6321 40.2157 36.384 40.3287 36.111C40.4418 35.8381 40.5 35.5455 40.5 35.25C40.5 34.9545 40.4418 34.6619 40.3287 34.389C40.2157 34.116 40.0499 33.8679 39.841 33.659C39.6321 33.4501 39.384 33.2843 39.111 33.1713C38.8381 33.0582 38.5455 33 38.25 33C37.6533 33 37.081 33.2371 36.659 33.659C36.2371 34.081 36 34.6533 36 35.25C36 35.8467 36.2371 36.419 36.659 36.841C37.081 37.2629 37.6533 37.5 38.25 37.5ZM13.5 54C13.1022 54 12.7206 53.842 12.4393 53.5607C12.158 53.2794 12 52.8978 12 52.5V10.5C12 9.30653 12.4741 8.16193 13.318 7.31802C14.1619 6.47411 15.3065 6 16.5 6H34.5C35.6935 6 36.8381 6.47411 37.682 7.31802C38.5259 8.16193 39 9.30653 39 10.5V24H43.5C44.6935 24 45.8381 24.4741 46.682 25.318C47.5259 26.1619 48 27.3065 48 28.5V52.5C48 52.8978 47.842 53.2794 47.5607 53.5607C47.2794 53.842 46.8978 54 46.5 54H13.5ZM15 10.5V51H21V43.5C21 43.1022 21.158 42.7206 21.4393 42.4393C21.7206 42.158 22.1022 42 22.5 42H37.5C37.8978 42 38.2794 42.158 38.5607 42.4393C38.842 42.7206 39 43.1022 39 43.5V51H45V28.5C45 28.1022 44.842 27.7206 44.5607 27.4393C44.2794 27.158 43.8978 27 43.5 27H37.5C37.1022 27 36.7206 26.842 36.4393 26.5607C36.158 26.2794 36 25.8978 36 25.5V10.5C36 10.1022 35.842 9.72064 35.5607 9.43934C35.2794 9.15804 34.8978 9 34.5 9H16.5C16.1022 9 15.7206 9.15804 15.4393 9.43934C15.158 9.72064 15 10.1022 15 10.5ZM36 45H31.5V51H36V45ZM28.5 45H24V51H28.5V45Z" fill="#2A2A2A"/>
</svg>
