<svg width="60" height="60" viewBox="0 0 60 60" fill="currentColor" xmlns="http://www.w3.org/2000/svg">
<path d="M50.9695 24.6656L32.2195 6.97028L32.1984 6.95153C31.596 6.39979 30.8087 6.09375 29.9918 6.09375C29.1749 6.09375 28.3876 6.39979 27.7852 6.95153L27.7641 6.97028L9.01407 24.6656C8.68242 24.9744 8.41833 25.3485 8.23842 25.7644C8.05852 26.1802 7.9667 26.6289 7.96875 27.082V48.75C7.96875 49.6202 8.31446 50.4548 8.92981 51.0702C9.54516 51.6855 10.3798 52.0312 11.25 52.0312H22.5C23.3702 52.0312 24.2048 51.6855 24.8202 51.0702C25.4356 50.4548 25.7813 49.6202 25.7813 48.75V37.5C25.7813 37.3756 25.8306 37.2564 25.9185 37.1685C26.0065 37.0806 26.1257 37.0312 26.25 37.0312H33.75C33.8743 37.0312 33.9936 37.0806 34.0815 37.1685C34.1694 37.2564 34.2188 37.3756 34.2188 37.5V48.75C34.2188 49.6202 34.5645 50.4548 35.1798 51.0702C35.7952 51.6855 36.6298 52.0312 37.5 52.0312H48.75C49.6202 52.0312 50.4548 51.6855 51.0702 51.0702C51.6855 50.4548 52.0312 49.6202 52.0312 48.75V27.082C52.0312 26.6277 51.9368 26.1783 51.7541 25.7623C51.5713 25.3464 51.3041 24.9729 50.9695 24.6656ZM49.2188 48.75C49.2188 48.8743 49.1694 48.9935 49.0815 49.0814C48.9935 49.1693 48.8743 49.2187 48.75 49.2187H37.5C37.3757 49.2187 37.2565 49.1693 37.1685 49.0814C37.0806 48.9935 37.0313 48.8743 37.0313 48.75V37.5C37.0313 36.6297 36.6855 35.7951 36.0702 35.1798C35.4548 34.5644 34.6202 34.2187 33.75 34.2187H26.25C25.3798 34.2187 24.5452 34.5644 23.9298 35.1798C23.3145 35.7951 22.9688 36.6297 22.9688 37.5V48.75C22.9688 48.8743 22.9194 48.9935 22.8315 49.0814C22.7436 49.1693 22.6243 49.2187 22.5 49.2187H11.25C11.1257 49.2187 11.0065 49.1693 10.9185 49.0814C10.8306 48.9935 10.7813 48.8743 10.7813 48.75V27.082C10.7811 27.0168 10.7946 26.9522 10.8208 26.8925C10.8471 26.8328 10.8855 26.7792 10.9336 26.7351L10.9547 26.7164L29.6906 9.02575C29.776 8.95123 29.8855 8.91018 29.9988 8.91018C30.1122 8.91018 30.2216 8.95123 30.307 9.02575L49.0453 26.7187L49.0641 26.7375C49.1126 26.7813 49.1515 26.8348 49.1781 26.8945C49.2048 26.9543 49.2186 27.0189 49.2188 27.0843V48.75Z" fill="#2A2A2A"/>
</svg>
