<svg width="60" height="60" viewBox="0 0 60 60" fill="none" xmlns="http://www.w3.org/2000/svg">
<path d="M30 12.8752L10.9625 20.4902C10.6742 20.6185 10.4408 20.8102 10.2625 21.0652C10.0875 21.3252 10 21.6152 10 21.9352V45.9652C10 46.3169 10.1683 46.661 10.505 46.9977C10.8417 47.3344 11.1858 47.5027 11.5375 47.5027H17.5V31.5402C17.5 30.4235 17.8933 29.471 18.68 28.6827C19.4667 27.8944 20.4192 27.5002 21.5375 27.5002H38.4625C39.5792 27.5002 40.5317 27.8935 41.32 28.6802C42.1067 29.4669 42.5 30.4194 42.5 31.5377V47.5002H48.4625C48.8142 47.5002 49.1583 47.3319 49.495 46.9952C49.8317 46.6585 50 46.3144 50 45.9627V21.9327C50 21.6127 49.9117 21.3244 49.735 21.0677C49.5583 20.811 49.3258 20.6194 49.0375 20.4927L30 12.8752ZM7.5 45.9627V21.9327C7.5 21.0827 7.73333 20.3219 8.2 19.6502C8.66667 18.9769 9.28333 18.4852 10.05 18.1752L28.51 10.8002C28.9967 10.5802 29.4933 10.4702 30 10.4702C30.5067 10.4702 31.0033 10.5794 31.49 10.7977L49.9525 18.1727C50.7192 18.4844 51.3358 18.976 51.8025 19.6477C52.2675 20.321 52.5 21.0827 52.5 21.9327V45.9627C52.5 47.0794 52.1067 48.0319 51.32 48.8202C50.5333 49.6069 49.5808 50.0002 48.4625 50.0002H40V31.5377C40 31.0894 39.8558 30.721 39.5675 30.4327C39.2792 30.1444 38.9108 30.0002 38.4625 30.0002H21.5375C21.0892 30.0002 20.7208 30.1444 20.4325 30.4327C20.1442 30.721 20 31.0894 20 31.5377V50.0002H11.5375C10.4208 50.0002 9.46833 49.6069 8.68 48.8202C7.89333 48.0335 7.5 47.081 7.5 45.9627ZM23.895 50.0002V46.1552H27.74V50.0002H23.895ZM28.0775 42.5002V38.6552H31.9225V42.5002H28.0775ZM32.26 50.0002V46.1552H36.105V50.0002H32.26Z" fill="black"/>
</svg>
