<svg width="200" height="36" viewBox="0 0 200 36" fill="none" xmlns="http://www.w3.org/2000/svg">
<path d="M0 0H10.6029V35.343H0V0Z" fill="#BFAC73"/>
<path d="M24.7401 0C30.596 0 35.343 4.74709 35.343 10.6029V24.7401C35.343 30.596 30.596 35.343 24.7401 35.343V0Z" fill="#BFAC73"/>
<path d="M12.3701 0H18.5551C20.995 0 22.973 1.97795 22.973 4.41788V13.2536C22.973 15.6936 20.995 17.6715 18.5551 17.6715H12.3701V0Z" fill="#BFAC73"/>
<path d="M12.3701 30.0416C12.3701 27.1137 14.7436 24.7401 17.6715 24.7401C20.5994 24.7401 22.973 27.1137 22.973 30.0416C22.973 32.9695 20.5994 35.343 17.6715 35.343C14.7436 35.343 12.3701 32.9695 12.3701 30.0416Z" fill="#BFAC73"/>
<path d="M61.101 7.971H59.2231V17.2957H60.9692C63.3193 17.2734 64.5164 15.7249 64.5603 12.6501C64.5383 9.57525 63.3852 8.01556 61.101 7.971ZM62.5177 27.1218H51.9751V26.2194H54.6107V7.971H51.9751V7.06861H62.9789C64.4285 7.06861 65.6805 7.32484 66.7347 7.83731C68.5797 8.75085 69.5022 10.2548 69.5022 12.3493C69.5022 13.196 69.3594 13.9647 69.0739 14.6554C68.1075 17.084 65.7244 18.2984 61.9246 18.2984H59.2231V26.2194H61.6281C62.0894 26.2639 62.3859 26.5647 62.5177 27.1218Z" fill="#2A2A2A"/>
<path d="M79.0235 26.2528C79.1552 26.2528 79.276 26.2639 79.3859 26.2862C79.6714 26.3308 79.8142 26.6093 79.8142 27.1218H70.4905V26.2528C70.7761 26.2528 71.0286 26.2305 71.2483 26.186C72.017 26.0523 72.4014 25.4952 72.4014 24.5149V13.6193H70.4905V12.7503H76.256L76.4866 15.8586C76.7282 15.2347 77.0797 14.6554 77.5409 14.1206C78.5732 13.0289 79.7702 12.483 81.132 12.483C81.4175 12.483 81.6921 12.5164 81.9556 12.5832C83.0318 12.8729 83.57 13.5747 83.57 14.6888C83.57 15.0007 83.5041 15.3015 83.3723 15.5912C82.9989 16.4379 82.3729 16.8612 81.4944 16.8612C81.2308 16.8612 80.9892 16.8278 80.7696 16.761C80.3083 16.5827 79.88 16.1371 79.4847 15.4241C79.1992 14.9116 78.9356 14.6554 78.694 14.6554C78.5622 14.6554 78.4195 14.6888 78.2657 14.7557C77.2993 15.2681 76.7392 16.6941 76.5855 19.0337V26.2528H79.0235Z" fill="#2A2A2A"/>
<path d="M89.2366 19.8692C89.2366 21.9636 89.3684 23.4899 89.632 24.448C90.0273 25.874 90.9059 26.587 92.2676 26.587C93.0364 26.587 93.6623 26.3531 94.1455 25.8852C94.9801 25.0385 95.3975 22.9886 95.3975 19.7355C95.3975 17.7079 95.2657 16.2262 95.0021 15.2904C94.6068 13.8421 93.7063 13.118 92.3006 13.118C91.4659 13.118 90.818 13.3742 90.3568 13.8867C89.61 14.7557 89.2366 16.7498 89.2366 19.8692ZM92.4653 12.249C94.3542 12.249 95.9685 12.7726 97.3083 13.8198C99.0434 15.2236 99.911 17.1732 99.911 19.6687C99.911 21.5403 99.3619 23.1891 98.2637 24.6151C96.7922 26.509 94.7605 27.456 92.1688 27.456C90.2799 27.456 88.6546 26.8767 87.2928 25.7181C85.5797 24.2475 84.7231 22.2533 84.7231 19.7355C84.7231 17.953 85.2282 16.3933 86.2386 15.0565C87.6882 13.1848 89.7637 12.249 92.4653 12.249Z" fill="#2A2A2A"/>
<path d="M107.62 32.603H109.301C109.432 32.603 109.564 32.6141 109.696 32.6364C109.981 32.681 110.124 32.9595 110.124 33.4719H101.558V32.603C101.844 32.603 102.107 32.5807 102.349 32.5361C103.074 32.3802 103.436 31.8231 103.436 30.865V13.6193H101.558V12.7503H107.39L107.554 15.9588C107.774 15.335 108.104 14.7557 108.543 14.2209C109.641 12.9063 111.069 12.249 112.826 12.249C113.99 12.249 115.022 12.5944 115.923 13.2851C117.592 14.5551 118.426 16.605 118.426 19.4347C118.426 21.6183 117.877 23.4454 116.779 24.9159C115.461 26.6093 113.715 27.456 111.541 27.456C109.784 27.4114 108.477 26.899 107.62 25.9186V32.603ZM111.08 13.8533C110.465 13.8533 109.894 14.1095 109.366 14.622C108.18 15.8029 107.587 17.7859 107.587 20.5711C107.587 22.0639 107.785 23.3228 108.18 24.3477C108.773 25.8183 109.663 26.5536 110.849 26.5536C112.87 26.5313 113.891 24.3255 113.913 19.9361C113.913 15.9254 112.968 13.8978 111.08 13.8533Z" fill="#2A2A2A"/>
<path d="M120.008 7.06861H129.727C132.165 7.06861 134.295 7.65906 136.118 8.83997C138.886 10.667 140.269 13.4411 140.269 17.162C140.269 20.0809 139.303 22.465 137.37 24.3143C135.394 26.186 132.879 27.1218 129.826 27.1218H120.008V26.2194H122.644V7.971H120.008V7.06861ZM129.826 7.971H127.256V26.2194H129.76C130.792 26.2194 131.66 26.0077 132.363 25.5844C134.186 24.4926 135.097 21.6294 135.097 16.9949C135.097 14.6777 134.877 12.8172 134.438 11.4135C133.669 9.11849 132.132 7.971 129.826 7.971Z" fill="#2A2A2A"/>
<path d="M146.925 19.8692C146.925 21.9636 147.056 23.4899 147.32 24.448C147.715 25.874 148.594 26.587 149.956 26.587C150.724 26.587 151.35 26.3531 151.833 25.8852C152.668 25.0385 153.085 22.9886 153.085 19.7355C153.085 17.7079 152.954 16.2262 152.69 15.2904C152.295 13.8421 151.394 13.118 149.988 13.118C149.154 13.118 148.506 13.3742 148.045 13.8867C147.298 14.7557 146.925 16.7498 146.925 19.8692ZM150.153 12.249C152.042 12.249 153.656 12.7726 154.996 13.8198C156.731 15.2236 157.599 17.1732 157.599 19.6687C157.599 21.5403 157.05 23.1891 155.952 24.6151C154.48 26.509 152.448 27.456 149.857 27.456C147.968 27.456 146.342 26.8767 144.981 25.7181C143.268 24.2475 142.411 22.2533 142.411 19.7355C142.411 17.953 142.916 16.3933 143.926 15.0565C145.376 13.1848 147.452 12.249 150.153 12.249Z" fill="#2A2A2A"/>
<path d="M166.362 13.6193H164.386L167.581 23.3451L169.756 16.0925L168.636 12.7503H175.027V13.6193H173.05L176.279 23.3785L179.343 13.6193H177.3V12.7503H181.979C181.979 12.8617 181.968 12.9732 181.946 13.0846C181.924 13.4411 181.715 13.6193 181.32 13.6193C180.881 13.6639 180.463 13.9869 180.068 14.5885L175.95 27.2889H174.862C174.423 27.2889 174.083 27.2109 173.841 27.0549C173.556 26.8544 173.193 26.1191 172.754 24.8491L170.316 17.6299L167.252 27.2889H166.165C165.835 27.2889 165.561 27.2443 165.341 27.1552C164.88 26.9547 164.419 26.186 163.957 24.8491L160.136 13.6193H158.752V12.7503H166.362V13.6193Z" fill="#2A2A2A"/>
<path d="M189.556 26.2528C189.688 26.2528 189.809 26.2639 189.919 26.2862C190.204 26.3308 190.347 26.6093 190.347 27.1218H182.638V26.2528C182.813 26.2528 182.978 26.2417 183.132 26.2194C184.076 26.108 184.548 25.5398 184.548 24.5149V13.6193H182.638V12.7503H188.502L188.667 15.3572C188.864 14.9562 189.128 14.5663 189.457 14.1875C190.578 12.8952 191.939 12.249 193.543 12.249C194.114 12.249 194.663 12.3381 195.19 12.5164C197.123 13.2071 198.089 14.9339 198.089 17.6968V26.2528H199.176C199.308 26.2528 199.44 26.2639 199.572 26.2862C199.857 26.3308 200 26.6093 200 27.1218H192.39V26.2528C192.697 26.2528 192.961 26.2194 193.18 26.1525C193.663 25.9966 193.905 25.4507 193.905 24.5149V17.1286C193.905 16.8167 193.883 16.5159 193.839 16.2262C193.62 14.7334 192.884 13.9869 191.632 13.9869C191.302 13.9869 190.984 14.0649 190.676 14.2209C189.556 14.7779 188.919 15.9366 188.766 17.6968L188.733 26.2528H189.556Z" fill="#2A2A2A"/>
</svg>
