<svg width="38" height="38" viewBox="0 0 38 38" fill="none" xmlns="http://www.w3.org/2000/svg">
<rect width="38" height="38" rx="19" fill="#EE5B1C"/>
<path d="M14.1929 12.35C14.1927 12.854 13.9923 13.3371 13.6358 13.6933C13.2793 14.0494 12.7959 14.2493 12.292 14.2491C11.7881 14.2488 11.3049 14.0484 10.9488 13.6919C10.5926 13.3354 10.3927 12.8521 10.3929 12.3481C10.3932 11.8442 10.5936 11.3611 10.9501 11.0049C11.3066 10.6488 11.79 10.4488 12.2939 10.4491C12.7978 10.4493 13.281 10.6498 13.6371 11.0063C13.9933 11.3628 14.1932 11.8461 14.1929 12.35ZM14.2499 15.656H10.4499V27.55H14.2499V15.656ZM20.2539 15.656H16.4729V27.55H20.2159V21.3085C20.2159 17.8315 24.7474 17.5085 24.7474 21.3085V27.55H28.4999V20.0165C28.4999 14.155 21.7929 14.3735 20.2159 17.252L20.2539 15.656Z" fill="white"/>
</svg>
